<svg version="1.1" xmlns="http://www.w3.org/2000/svg" xmlns:xlink="http://www.w3.org/1999/xlink" viewBox="0 0 172 172"><g fill="none" fill-rule="nonzero" stroke="none" stroke-width="1" stroke-linecap="butt" stroke-linejoin="miter" stroke-miterlimit="10" stroke-dasharray="" stroke-dashoffset="0" font-family="none" font-weight="none" font-size="none" text-anchor="none" style="mix-blend-mode: normal"><path d="M0,172v-172h172v172z" fill="none"></path><g fill="#ecf0f1"><path d="M121.83333,50.16667c-9.77533,0 -61.89133,0 -71.66667,0c-19.78717,0 -35.83333,16.04617 -35.83333,35.83333c0,19.78717 16.04617,35.83333 35.83333,35.83333c9.77533,0 61.89133,0 71.66667,0c19.78717,0 35.83333,-16.04617 35.83333,-35.83333c0,-19.78717 -16.04617,-35.83333 -35.83333,-35.83333zM121.83333,107.5c-11.87517,0 -21.5,-9.62483 -21.5,-21.5c0,-11.87517 9.62483,-21.5 21.5,-21.5c11.87517,0 21.5,9.62483 21.5,21.5c0,11.87517 -9.62483,21.5 -21.5,21.5z"></path></g></g></svg>
